<svg width="24" height="24" viewBox="0 0 24 24" fill="none" xmlns="http://www.w3.org/2000/svg">
<path fill-rule="evenodd" clip-rule="evenodd" d="M7.05273 0.89977C8.33236 0.842899 8.74036 0.830261 12 0.830261C15.2596 0.830261 15.6676 0.843952 16.9462 0.89977C18.2247 0.955588 19.0975 1.15253 19.8611 1.43794C20.6607 1.72967 21.3862 2.18569 21.9862 2.77547C22.5971 3.35366 23.0684 4.05296 23.3695 4.82599C23.6662 5.56321 23.8691 6.40574 23.928 7.63795C23.9869 8.87543 24 9.26931 24 12.4151C24 15.562 23.9858 15.9559 23.928 17.1913C23.8702 18.4235 23.6662 19.266 23.3695 20.0032C23.0684 20.7763 22.5963 21.4768 21.9862 22.0558C21.3862 22.6456 20.6607 23.1006 19.8611 23.3913C19.0975 23.6777 18.2247 23.8736 16.9484 23.9305C15.6676 23.9874 15.2596 24 12 24C8.74036 24 8.33236 23.9863 7.05273 23.9305C5.77636 23.8747 4.90364 23.6777 4.14 23.3913C3.33919 23.1006 2.61362 22.6448 2.01382 22.0558C1.40332 21.4773 0.930889 20.7772 0.629455 20.0043C0.333818 19.2671 0.130909 18.4245 0.072 17.1923C0.0130909 15.9548 0 15.5609 0 12.4151C0 9.26826 0.0141818 8.87437 0.072 7.64006C0.129818 6.40574 0.333818 5.56321 0.629455 4.82599C0.931334 4.05305 1.40413 3.35293 2.01491 2.77441C2.61386 2.18517 3.3387 1.72908 4.13891 1.43794C4.90255 1.15253 5.77527 0.956642 7.05164 0.89977H7.05273ZM16.8491 2.98505C15.5836 2.92923 15.204 2.91764 12 2.91764C8.796 2.91764 8.41636 2.92923 7.15091 2.98505C5.98036 3.03665 5.34545 3.22517 4.92218 3.3842C4.36255 3.59483 3.96218 3.84443 3.54218 4.2499C3.14405 4.62383 2.83765 5.07905 2.64545 5.58216C2.48073 5.99079 2.28545 6.60374 2.232 7.73379C2.17418 8.95547 2.16218 9.32197 2.16218 12.4151C2.16218 15.5083 2.17418 15.8748 2.232 17.0965C2.28545 18.2265 2.48073 18.8395 2.64545 19.2481C2.83745 19.7505 3.144 20.2065 3.54218 20.5804C3.92945 20.9648 4.40182 21.2607 4.92218 21.4461C5.34545 21.6051 5.98036 21.7936 7.15091 21.8452C8.41636 21.901 8.79491 21.9126 12 21.9126C15.2051 21.9126 15.5836 21.901 16.8491 21.8452C18.0196 21.7936 18.6545 21.6051 19.0778 21.4461C19.6375 21.2354 20.0378 20.9858 20.4578 20.5804C20.856 20.2065 21.1625 19.7505 21.3545 19.2481C21.5193 18.8395 21.7145 18.2265 21.768 17.0965C21.8258 15.8748 21.8378 15.5083 21.8378 12.4151C21.8378 9.32197 21.8258 8.95547 21.768 7.73379C21.7145 6.60374 21.5193 5.99079 21.3545 5.58216C21.1364 5.04189 20.8778 4.65537 20.4578 4.2499C20.0705 3.86557 19.5989 3.56978 19.0778 3.3842C18.6545 3.22517 18.0196 3.03665 16.8491 2.98505ZM10.4673 15.9864C11.3233 16.3304 12.2764 16.3769 13.1639 16.1178C14.0514 15.8587 14.8182 15.3102 15.3334 14.566C15.8485 13.8217 16.0801 12.9279 15.9884 12.0372C15.8968 11.1464 15.4876 10.314 14.8309 9.68215C14.4123 9.27824 13.906 8.96896 13.3487 8.77658C12.7914 8.58421 12.1968 8.51352 11.6078 8.5696C11.0188 8.62569 10.45 8.80716 9.94233 9.10094C9.43468 9.39473 9.00081 9.79352 8.67197 10.2686C8.34312 10.7437 8.12748 11.2833 8.04056 11.8485C7.95365 12.4137 7.99762 12.9905 8.16932 13.5373C8.34101 14.0841 8.63616 14.5874 9.03351 15.0109C9.43087 15.4344 9.92054 15.7676 10.4673 15.9864ZM7.63855 8.20456C8.2113 7.65162 8.89126 7.213 9.6396 6.91375C10.3879 6.6145 11.19 6.46048 12 6.46048C12.81 6.46048 13.6121 6.6145 14.3604 6.91375C15.1087 7.213 15.7887 7.65162 16.3615 8.20456C16.9342 8.7575 17.3885 9.41393 17.6985 10.1364C18.0085 10.8588 18.168 11.6332 18.168 12.4151C18.168 13.1971 18.0085 13.9714 17.6985 14.6939C17.3885 15.4163 16.9342 16.0728 16.3615 16.6257C15.2047 17.7424 13.6359 18.3698 12 18.3698C10.3641 18.3698 8.79528 17.7424 7.63855 16.6257C6.48182 15.509 5.83197 13.9944 5.83197 12.4151C5.83197 10.8359 6.48182 9.32127 7.63855 8.20456ZM19.536 7.34728C19.6779 7.21802 19.7916 7.06258 19.8701 6.89017C19.9487 6.71776 19.9907 6.53188 19.9935 6.34353C19.9964 6.15518 19.9601 5.9682 19.8867 5.79365C19.8134 5.6191 19.7045 5.46053 19.5665 5.32734C19.4285 5.19414 19.2643 5.08903 19.0835 5.01821C18.9027 4.9474 18.709 4.91232 18.5139 4.91507C18.3188 4.91781 18.1263 4.95832 17.9477 5.0342C17.7691 5.11007 17.6081 5.21976 17.4742 5.35679C17.2138 5.62327 17.0712 5.97723 17.0768 6.34353C17.0823 6.70983 17.2355 7.05963 17.5038 7.31868C17.7721 7.57772 18.1345 7.72561 18.5139 7.73095C18.8933 7.73629 19.26 7.59866 19.536 7.34728Z" fill="white"/>
</svg>
