<svg width="27" height="20" viewBox="0 0 27 20" fill="none" xmlns="http://www.w3.org/2000/svg">
<path d="M22.8454 1.66212C21.1354 0.887325 19.2839 0.324972 17.3553 5.74827e-05C17.3383 -0.000468134 17.3215 0.00261616 17.306 0.00909357C17.2904 0.015571 17.2765 0.0252842 17.2653 0.0375479C17.0338 0.44994 16.7638 0.987299 16.5838 1.39969C14.5382 1.09977 12.4578 1.09977 10.4122 1.39969C10.2322 0.974802 9.9622 0.44994 9.71791 0.0375479C9.70505 0.0125545 9.66648 5.74827e-05 9.6279 5.74827e-05C7.69928 0.324972 5.86066 0.887325 4.13775 1.66212C4.1249 1.66212 4.11204 1.67462 4.09918 1.68712C0.601942 6.77328 -0.36237 11.722 0.113357 16.6207C0.113357 16.6457 0.126214 16.6707 0.151929 16.6832C2.46628 18.3328 4.69063 19.3325 6.88926 19.9948C6.92783 20.0073 6.9664 19.9948 6.97926 19.9698C7.49356 19.2825 7.95643 18.5577 8.35501 17.7954C8.38073 17.7454 8.35501 17.6954 8.30358 17.6829C7.5707 17.408 6.8764 17.0831 6.19495 16.7082C6.14352 16.6832 6.14352 16.6082 6.1821 16.5707C6.32353 16.4707 6.46496 16.3583 6.60639 16.2583C6.63211 16.2333 6.67068 16.2333 6.69639 16.2458C11.1194 18.2078 15.8895 18.2078 20.2611 16.2458C20.2868 16.2333 20.3253 16.2333 20.3511 16.2583C20.4925 16.3708 20.6339 16.4707 20.7754 16.5832C20.8268 16.6207 20.8268 16.6957 20.7625 16.7207C20.0939 17.1081 19.3867 17.4205 18.6539 17.6954C18.6024 17.7079 18.5896 17.7704 18.6024 17.8079C19.0139 18.5702 19.4767 19.295 19.9782 19.9823C20.0168 19.9948 20.0553 20.0073 20.0939 19.9948C22.3054 19.3325 24.5297 18.3328 26.8441 16.6832C26.8698 16.6707 26.8827 16.6457 26.8827 16.6207C27.4484 10.9597 25.9441 6.04847 22.8968 1.68712C22.884 1.67462 22.8711 1.66212 22.8454 1.66212ZM9.0236 13.634C7.69928 13.634 6.59353 12.4468 6.59353 10.9847C6.59353 9.52256 7.67356 8.33538 9.0236 8.33538C10.3865 8.33538 11.4665 9.53506 11.4537 10.9847C11.4537 12.4468 10.3736 13.634 9.0236 13.634ZM17.9853 13.634C16.661 13.634 15.5552 12.4468 15.5552 10.9847C15.5552 9.52256 16.6352 8.33538 17.9853 8.33538C19.3482 8.33538 20.4282 9.53506 20.4153 10.9847C20.4153 12.4468 19.3482 13.634 17.9853 13.634Z" fill="white"/>
</svg>
