<svg width="27" height="20" viewBox="0 0 27 20" fill="none" xmlns="http://www.w3.org/2000/svg">
<path d="M26.8265 4.41603C26.8265 2.07234 25.0808 0.186974 22.9237 0.186974C20.0018 0.0520817 17.022 0 13.9767 0H13.0274C9.98947 0 7.00433 0.0520818 4.08248 0.187495C1.93064 0.187495 0.184914 2.08328 0.184914 4.42696C0.0530618 6.28056 -0.00284374 8.13467 0.000320722 9.98879C-0.00495338 11.8429 0.0548198 13.6988 0.17964 15.5563C0.17964 17.9 1.92537 19.801 4.0772 19.801C7.14673 19.9416 10.2954 20.0041 13.4967 19.9989C16.7034 20.0094 19.8433 19.9434 22.9163 19.801C25.0734 19.801 26.8191 17.9 26.8191 15.5563C26.9457 13.697 27.0037 11.8429 26.9985 9.98358C27.0104 8.12947 26.9531 6.27361 26.8265 4.41603ZM10.9177 15.098V4.86393L18.5652 9.97837L10.9177 15.098Z" fill="white"/>
</svg>
