<svg width="27" height="20" viewBox="0 0 27 20" fill="none" xmlns="http://www.w3.org/2000/svg">
<path d="M24.2261 4.98434C24.2439 5.20361 24.2439 5.42163 24.2439 5.63964C24.2439 12.3117 18.6755 20 8.49898 20C5.36373 20 2.45105 19.1718 0 17.7334C0.445146 17.7797 0.873804 17.796 1.33681 17.796C3.82769 17.8015 6.24804 17.0419 8.20771 15.6396C7.05284 15.6206 5.93332 15.2731 5.00547 14.6457C4.07762 14.0183 3.38776 13.1423 3.03221 12.1401C3.37431 12.1864 3.71779 12.2178 4.07775 12.2178C4.57373 12.2178 5.07246 12.1551 5.53547 12.0461C4.28214 11.8153 3.15514 11.1958 2.34611 10.2928C1.53708 9.38983 1.09596 8.25918 1.09775 7.0931V7.03045C1.83554 7.40509 2.69148 7.63939 3.59826 7.67072C2.83861 7.21036 2.21573 6.58567 1.78517 5.85239C1.35462 5.11911 1.12978 4.30003 1.13072 3.46824C1.13072 2.53101 1.40413 1.67147 1.88363 0.922191C3.27421 2.48217 5.00858 3.75838 6.97441 4.66816C8.94024 5.57794 11.0937 6.10101 13.2953 6.20348C13.2101 5.82759 13.1579 5.43791 13.1579 5.04699C13.1575 4.38411 13.3004 3.72768 13.5784 3.1152C13.8564 2.50272 14.264 1.94622 14.778 1.47749C15.2919 1.00877 15.9022 0.637027 16.5738 0.383509C17.2453 0.129991 17.9651 -0.000328755 18.692 6.22808e-07C20.2857 6.22808e-07 21.7242 0.608947 22.7354 1.59379C23.9743 1.37529 25.1625 0.962815 26.2471 0.37464C25.8341 1.54093 24.969 2.52989 23.8139 3.15625C24.9127 3.04195 25.9867 2.77841 27 2.37439C26.2432 3.38065 25.3053 4.26306 24.2261 4.98434Z" fill="white"/>
</svg>
